Coordinates
version=1
nRows=12
nColumns=33
inDegrees=yes

Units are S.I. units (second, meters, Newtons, ...)
Angles are in degrees.

endheader
time	ground_thorax_rot_x	ground_thorax_rot_y	ground_thorax_rot_z	ground_thorax_tx	ground_thorax_ty	ground_thorax_tz	clav_prot_r	clav_elev_r	scapula_abduction_r	scapula_elevation_r	scapula_upward_rot_r	scapula_winging_r	shoulder_elv_r	plane_of_elev_r	axial_rot_r	elbow_flexion_r	pro_sup_r	wrist_flex_r	wrist_dev_r	clav_prot_l	clav_elev_l	scapula_abduction_l	scapula_elevation_l	scapula_upward_rot_l	scapula_winging_l	shoulder_elv_l	plane_of_elev_l	axial_rot_l	elbow_flexion_l	pro_sup_l	wrist_flex_l	wrist_dev_l
      9.48000000	    -38.44415825	     -9.93384307	     16.52134699	   -234.72856307	    840.59041389	      4.88311433	      7.44016315	    -39.70837149	     39.21706167	    -45.00000000	     45.00000000	   2507.02507021	  -2638.90973778	    -90.00000000	    -72.37840986	   1802.12066037	   -117.69128276	     19.31016057	     15.13690672	     -2.75738170	     42.10195854	    -45.00000000	    -45.00000000	     36.15529631	  -2400.18689301	   -272.56844569	     10.90541626	    179.99999979	   1093.05271042	    208.91704331	     10.25462334	    -16.24220115
      9.49000000	    -38.31901639	    -10.05725951	     16.83228900	   -233.37174293	    840.04285007	      4.89598400	      7.52805048	    -39.72128804	     39.32190379	    -45.00000000	     45.00000000	   2507.04584207	  -2638.84549520	    -90.00000000	    -72.42621276	   1802.15039434	   -117.36637336	     19.31001100	     15.13910578	     -2.76835522	     42.08363245	    -45.00000000	    -45.00000000	     36.19461295	  -2400.18464350	   -272.60300047	     10.89686312	    179.99999979	   1093.08059914	    209.00372429	     10.26420987	    -16.16330306
      9.50000000	    -38.16681269	    -10.16102741	     17.15068860	   -231.94189592	    839.45464517	      4.91738112	      7.54972600	    -39.70394888	     39.42448212	    -45.00000000	     45.00000000	   2507.07758198	  -2638.78429207	    -90.00000000	    -72.47040486	   1802.15273699	   -117.01992072	     19.29906554	     15.12647930	     -2.79036320	     42.07660061	    -45.00000000	    -45.00000000	     36.27008426	  -2400.16078930	   -272.65763168	     10.87276230	    179.99999979	   1093.09711084	    209.09482687	     10.28734107	    -16.09535421
      9.51000000	    -38.03480866	    -10.30722674	     17.49633075	   -230.44056097	    838.82504857	      4.94611518	      7.69875701	    -39.72155807	     39.58542674	    -45.00000000	     45.00000000	   2507.07418700	  -2638.76711037	    -90.00000000	    -72.47057586	   1802.15790134	   -116.65926137	     19.26313268	     15.10335171	     -2.90297357	     42.08602294	    -45.00000000	    -45.00000000	     36.28902464	  -2400.20145340	   -272.67119948	     10.82951372	    179.99999979	   1093.08605787	    209.18687224	     10.28540336	    -16.00484764
      9.52000000	    -37.85846656	    -10.45568052	     17.86661884	   -228.87122260	    838.15304926	      4.97991121	      7.72218654	    -39.69344359	     39.68928398	    -45.00000000	     45.00000000	   2507.09843864	  -2638.71253542	    -90.00000000	    -72.50801287	   1802.16049857	   -116.29700597	     19.25826042	     15.08858479	     -2.87561646	     42.06384579	    -45.00000000	    -45.00000000	     36.31670642	  -2400.14683575	   -272.72946692	     10.85269054	    179.99999979	   1093.11714047	    209.29498260	     10.31377988	    -15.92651959
      9.53000000	    -37.70997498	    -10.60924980	     18.23475797	   -227.23691130	    837.43399039	      5.01358325	      7.76250169	    -39.67981744	     39.87413206	    -45.00000000	     45.00000000	   2507.03137007	  -2638.72015248	    -90.00000000	    -72.48330910	   1802.13081956	   -115.92212450	     19.19662449	     15.03826608	     -2.90710061	     42.10349473	    -45.00000000	    -45.00000000	     36.11783475	  -2400.20818878	   -272.85884989	     10.84205555	    179.99999979	   1093.12208277	    209.41326278	     10.33855504	    -15.85114253
      9.54000000	    -37.52877330	    -10.73720659	     18.59635447	   -225.53787883	    836.66453886	      5.04611137	      7.78351537	    -39.65290086	     40.00546590	    -45.00000000	     45.00000000	   2507.03273166	  -2638.68204824	    -90.00000000	    -72.50321859	   1802.13142223	   -115.53464535	     19.19244164	     15.01634285	     -2.80697647	     42.13689522	    -45.00000000	    -45.00000000	     35.92418972	  -2400.18792944	   -273.06034371	     10.88923547	    179.99999979	   1093.12611824	    209.55385937	     10.40569885	    -15.81812051
      9.55000000	    -37.32340240	    -10.89905893	     18.96649973	   -223.76948415	    835.83734627	      5.07494447	      7.93032614	    -39.65437807	     40.18061213	    -45.00000000	     45.00000000	   2506.98611621	  -2638.66627824	    -90.00000000	    -72.50019037	   1802.11118147	   -115.13656713	     19.14830983	     14.96928645	     -2.85071413	     42.20320119	    -45.00000000	    -45.00000000	     35.75010876	  -2400.17766589	   -273.23267299	     10.84786034	    179.99999979	   1093.06709841	    209.70418495	     10.44183034	    -15.77406901
      9.56000000	    -37.17252671	    -11.13613542	     19.45420312	   -221.92551278	    834.94825766	      5.10107603	      8.04255600	    -39.68482972	     40.32821999	    -45.00000000	     45.00000000	   2506.89441669	  -2638.69539438	    -90.00000000	    -72.45344958	   1802.13339980	   -114.75019567	     19.04584908	     14.90011945	     -2.88581831	     42.20130222	    -45.00000000	    -45.00000000	     35.53077376	  -2400.28203928	   -273.33111301	     10.79966873	    179.99999979	   1093.08659598	    209.86685821	     10.40399539	    -15.63444271
      9.57000000	    -36.93108930	    -11.24970971	     19.83675386	   -219.99047857	    833.98925753	      5.12577220	      7.36913147	    -39.40769431	     40.32500677	    -45.00000000	     45.00000000	   2507.02507852	  -2638.39523667	    -90.00000000	    -72.72637908	   1802.34033097	   -114.23783174	     19.22197373	     14.96658169	     -2.47980095	     42.11144438	    -45.00000000	    -45.00000000	     36.20294798	  -2399.92769758	   -273.22727379	     10.98508821	    179.99999979	   1093.39450351	    210.14218226	     10.58474836	    -15.64947469
      9.58000000	    -36.72555742	    -11.45398198	     20.30764733	   -217.95231832	    832.95706692	      5.15206278	      7.72101154	    -39.44535865	     40.50218817	    -45.00000000	     45.00000000	   2506.96971282	  -2638.44077003	    -90.00000000	    -72.65760462	   1802.27218286	   -113.78947595	     19.17798121	     14.90407950	     -2.49485424	     42.21699634	    -45.00000000	    -45.00000000	     35.68372208	  -2399.94759002	   -273.56175619	     11.05514482	    179.99999979	   1093.33803926	    210.34974212	     10.64322913	    -15.60863573
      9.59000000	    -36.51421916	    -11.70287303	     20.79703557	   -215.81107844	    831.85063123	      5.17839407	      7.60475886	    -39.38270762	     40.66681863	    -45.00000000	     45.00000000	   2506.82859022	  -2638.31970709	    -90.00000000	    -72.75220211	   1802.35710854	   -113.31306590	     19.11425422	     14.83945191	     -2.43315797	     42.16779539	    -45.00000000	    -45.00000000	     35.82314643	  -2399.91007708	   -273.52328141	     11.01310480	    179.99999979	   1093.42951398	    210.60383469	     10.64164037	    -15.49752276
